<svg width="120" height="119" viewBox="0 0 120 119" fill="none" xmlns="http://www.w3.org/2000/svg">
    <!--    skills    -->
    <g id="cssIcon">
        <path d="M22.1325 101.154L13.71 7.4375H106.29L97.8562 101.139L59.9437 111.562L22.1325 101.154Z" fill="#1572B6"/>
        <path d="M60 103.597L90.6375 95.174L97.845 15.1019H60V103.597Z" fill="#33A9DC"/>
        <path d="M60 49.054H75.3375L76.395 37.2842H60V25.7896H89.0625L88.785 28.8724L85.9387 60.5487H60V49.054Z" fill="white"/>
        <path d="M60.0711 78.9045L60.0186 78.9193L47.1112 75.4609L46.2862 66.2942H34.6499L36.2737 84.3413L60.0149 90.8788L60.0711 90.864V78.9045Z" fill="#EBEBEB"/>
        <path d="M74.3513 60.0615L72.9563 75.4534L60.03 78.9119V90.8714L83.79 84.3412L83.9663 82.4001L85.98 60.0615H74.3513Z" fill="white"/>
        <path d="M60.0411 25.7896V37.2842H32.0436L31.8111 34.6997L31.2824 28.8724L31.0049 25.7896H60.0411ZM59.9999 49.054V60.5487H47.2536L47.0211 57.9642L46.4961 52.1369L46.2186 49.054H59.9999Z" fill="#EBEBEB"/>
    </g>

    <g id="gitIcon">
        <g clip-path="url(#clip0_2_5685)">
            <path d="M103.02 47.8219L57.1758 1.98038C54.5372 -0.6598 50.2552 -0.6598 47.6134 1.98038L38.0937 11.5001L50.1699 23.5763C52.9762 22.6281 56.1943 23.2642 58.4313 25.5012C60.6789 27.7525 61.3106 30.9981 60.3393 33.8134L71.9775 45.452C74.7932 44.482 78.0421 45.1095 80.291 47.3621C83.434 50.5039 83.434 55.596 80.291 58.7399C77.1471 61.8841 72.055 61.8841 68.9095 58.7399C66.5454 56.3733 65.9613 52.9013 67.1582 49.9888L56.3046 39.1352L56.3034 67.6973C57.0902 68.0863 57.8088 68.6002 58.4313 69.2189C61.5743 72.3607 61.5743 77.4532 58.4313 80.5995C55.2874 83.7422 50.1929 83.7422 47.0535 80.5995C43.9105 77.4532 43.9105 72.3611 47.0535 69.2193C47.8067 68.4658 48.7019 67.869 49.6871 67.4635V38.6352C48.7004 38.2324 47.8048 37.6353 47.0535 36.8793C44.6722 34.5013 44.0996 31.0071 45.3198 28.0831L33.4154 16.1775L1.98105 47.6099C-0.660352 50.2525 -0.660352 54.5349 1.98105 57.1755L47.8259 103.018C50.4652 105.658 54.7464 105.658 57.3891 103.018L103.019 57.3884C105.66 54.747 105.66 50.4621 103.019 47.8219" fill="#DE4C36"/>
        </g>
        <defs>
            <clipPath id="clip0_2_5685">
                <rect width="105" height="105" fill="white"/>
            </clipPath>
        </defs>
    </g>

    <g id="githubIcon">
        <path fill-rule="evenodd" clip-rule="evenodd" d="M44 0C19.69 0 0 19.69 0 44C0 63.47 12.595 79.915 30.085 85.745C32.285 86.13 33.11 84.81 33.11 83.655C33.11 82.61 33.055 79.145 33.055 75.46C22 77.495 19.14 72.765 18.26 70.29C17.765 69.025 15.62 65.12 13.75 64.075C12.21 63.25 10.01 61.215 13.695 61.16C17.16 61.105 19.635 64.35 20.46 65.67C24.42 72.325 30.745 70.455 33.275 69.3C33.66 66.44 34.815 64.515 36.08 63.415C26.29 62.315 16.06 58.52 16.06 41.69C16.06 36.905 17.765 32.945 20.57 29.865C20.13 28.765 18.59 24.255 21.01 18.205C21.01 18.205 24.695 17.05 33.11 22.715C36.63 21.725 40.37 21.23 44.11 21.23C47.85 21.23 51.59 21.725 55.11 22.715C63.525 16.995 67.21 18.205 67.21 18.205C69.63 24.255 68.09 28.765 67.65 29.865C70.455 32.945 72.16 36.85 72.16 41.69C72.16 58.575 61.875 62.315 52.085 63.415C53.68 64.79 55.055 67.43 55.055 71.555C55.055 77.44 55 82.17 55 83.655C55 84.81 55.825 86.185 58.025 85.745C66.7597 82.796 74.3497 77.1822 79.7268 69.6937C85.1039 62.2052 87.9974 53.219 88 44C88 19.69 68.31 0 44 0Z" fill="black"/>
    </g>

    <g id="htmlIcon">
        <path d="M22.1323 102.004L13.7061 7.5H106.294L97.856 101.989L59.9436 112.5L22.1323 102.004Z" fill="#E44F26"/>
        <path d="M60 104.468L90.6375 95.9738L97.845 15.2288H60V104.468Z" fill="#F1662A"/>
        <path d="M60 50.2762H44.6625L43.605 38.4075H60V26.8162H30.9375L31.215 29.9287L34.0613 61.8675H60V50.2762ZM60 80.3775L59.9475 80.3925L47.04 76.9087L46.215 67.665H34.5787L36.2025 85.86L59.9475 92.4525L60 92.4375V80.3775Z" fill="#EBEBEB"/>
        <path d="M59.959 50.2762V61.8675H74.2315L72.889 76.9012L59.959 80.3887V92.4487L83.7227 85.86L83.8952 83.9025L86.6177 53.3887L86.9027 50.2762H59.959ZM59.959 26.8162V38.4075H87.9565L88.189 35.805L88.7177 29.9287L88.9952 26.8162H59.959Z" fill="white"/>
    </g>

    <g id="jsIcon">
        <path d="M7.5 7.5H112.5V112.5H7.5V7.5Z" fill="#F5DE19"/>
        <path d="M78.0338 89.5312C78.9284 91.3485 80.3183 92.8759 82.0434 93.9375C83.7684 94.9991 85.7584 95.5515 87.7838 95.5313C91.8713 95.5313 94.485 93.4875 94.485 90.6562C94.485 87.2812 91.8 86.0738 87.3 84.105L84.8325 83.0475C77.7075 80.0138 72.9825 76.215 72.9825 68.1825C72.9825 60.7838 78.6075 55.1475 87.4313 55.1475C90.2877 54.9412 93.1416 55.5805 95.637 56.9856C98.1324 58.3907 100.159 60.4994 101.464 63.0488L93.75 67.98C93.2476 66.716 92.3728 65.6345 91.2416 64.879C90.1105 64.1236 88.7764 63.7298 87.4163 63.75C86.8229 63.6906 86.2236 63.7555 85.6567 63.9404C85.0897 64.1254 84.5675 64.4265 84.1234 64.8244C83.6792 65.2224 83.3228 65.7085 83.0769 66.2518C82.831 66.7951 82.7009 67.3837 82.695 67.98C82.695 70.9388 84.5288 72.1388 88.7625 73.98L91.23 75.0375C99.615 78.6338 104.355 82.2975 104.355 90.5363C104.355 99.42 97.3763 104.287 88.005 104.287C84.3537 104.52 80.713 103.691 77.5223 101.901C74.3317 100.11 71.7274 97.4342 70.0238 94.1963L78.0338 89.5312ZM43.1775 90.3863C44.7263 93.135 46.1363 95.46 49.5263 95.46C52.7663 95.46 54.8138 94.1925 54.8138 89.2612V55.71H64.68V89.3925C64.68 99.6075 58.68 104.257 49.9463 104.257C46.8591 104.426 43.7931 103.657 41.1513 102.051C38.5096 100.444 36.4157 98.0761 35.145 95.2575L43.1775 90.3863Z" fill="black"/>
    </g>

    <g id="reactIcon">
        <g clip-path="url(#clip0_2_5687)">
            <path d="M92.9055 32.7027C91.703 32.2887 90.4903 31.9051 89.2686 31.5523C89.4738 30.7106 89.6627 29.8792 89.8304 29.0623C92.5837 15.6483 90.7838 4.84178 84.6359 1.28375C78.7415 -2.12722 69.1015 1.42949 59.3658 9.93342C58.4063 10.773 57.4681 11.6368 56.552 12.524C55.9388 11.934 55.3148 11.3556 54.6802 10.7888C44.4766 1.69616 34.2492 -2.13608 28.108 1.43215C22.2188 4.85374 20.4749 15.0127 22.9537 27.7254C23.2003 28.9844 23.4787 30.237 23.7887 31.4819C22.341 31.8947 20.9441 32.3342 19.6072 32.8019C7.64431 36.9881 0.00463867 43.5483 0.00463867 50.3529C0.00463867 57.3808 8.20617 64.43 20.666 68.7043C21.6762 69.0495 22.6947 69.3692 23.7208 69.6634C23.3875 71.0042 23.0917 72.354 22.8336 73.7114C20.4705 86.2035 22.3159 96.1223 28.1892 99.5222C34.2554 103.033 44.4369 99.4247 54.3505 90.7268C55.1544 90.0196 55.9406 89.2925 56.7083 88.546C57.7003 89.5066 58.7188 90.4393 59.7626 91.343C69.3659 99.6365 78.85 102.985 84.7176 99.5762C90.7781 96.055 92.7479 85.3995 90.1906 72.4356C89.9891 71.42 89.7632 70.4094 89.5131 69.4047C90.2281 69.1921 90.9299 68.9732 91.614 68.7455C104.567 64.4384 112.995 57.4747 112.995 50.3529C112.995 43.5234 105.109 36.919 92.9055 32.7027ZM90.0961 64.1474C89.4782 64.3525 88.8444 64.5505 88.1982 64.7432C86.7682 60.1995 84.8385 55.3684 82.4768 50.3764C84.7304 45.5036 86.5859 40.734 87.9758 36.22C89.1317 36.5558 90.2533 36.9097 91.3346 37.2832C101.791 40.8961 108.168 46.2372 108.168 50.3529C108.168 54.7367 101.28 60.4277 90.0961 64.1474ZM85.4556 73.3765C86.5864 79.1087 86.7475 84.2916 85.9985 88.3435C85.3258 91.9844 83.9726 94.4115 82.2989 95.3839C78.7384 97.4526 71.1234 94.7637 62.9109 87.6706C61.94 86.8305 60.9926 85.9634 60.0698 85.0703C63.2538 81.5756 66.4356 77.5131 69.5411 73.0008C75.0035 72.5144 80.164 71.7188 84.8438 70.6331C85.0693 71.5426 85.2732 72.4573 85.4556 73.3765ZM38.5256 95.0264C35.0467 96.2592 32.2758 96.2946 30.6008 95.3254C27.0368 93.2624 25.5551 85.298 27.5761 74.6151C27.8164 73.3527 28.0914 72.0972 28.401 70.8502C33.0292 71.8779 38.1522 72.6168 43.6274 73.0624C46.7541 77.4776 50.0277 81.5358 53.327 85.0894C52.6258 85.7703 51.9081 86.4338 51.1744 87.0793C46.7903 90.9252 42.3973 93.654 38.5256 95.0264ZM22.2276 64.1204C16.718 62.2302 12.1679 59.7738 9.04919 57.0933C6.24649 54.6848 4.8319 52.2932 4.8319 50.3529C4.8319 46.2234 10.9656 40.9564 21.1961 37.3766C22.4377 36.9425 23.7371 36.5327 25.0855 36.1482C26.4996 40.7641 28.3543 45.5904 30.5924 50.4707C28.3251 55.4233 26.444 60.3267 25.0162 64.997C24.0796 64.7278 23.1498 64.4355 22.2276 64.1204ZM27.6909 26.7947C25.5674 15.9031 26.9776 7.68706 30.5267 5.62497C34.3066 3.42867 42.6652 6.56011 51.4754 14.4115C52.0499 14.9247 52.6151 15.4482 53.1707 15.9819C49.8878 19.52 46.6442 23.548 43.5453 27.9371C38.2312 28.4315 33.1444 29.2253 28.4677 30.2889C28.1795 29.131 27.9205 27.9661 27.6909 26.7951V26.7947ZM76.43 38.8739C75.3254 36.9589 74.1797 35.0679 72.9939 33.2024C76.599 33.66 80.0532 34.2673 83.2968 35.0098C82.3232 38.1425 81.1094 41.4175 79.6807 44.7753C78.6364 42.7867 77.5526 40.8191 76.43 38.8739ZM56.5542 19.4443C58.7805 21.8652 61.0103 24.5678 63.2035 27.5003C58.7545 27.2894 54.298 27.2886 49.849 27.4977C52.0443 24.5922 54.2931 21.8931 56.5542 19.4443ZM36.5509 38.9071C35.4424 40.8367 34.3788 42.792 33.3612 44.7713C31.9558 41.4255 30.7531 38.1355 29.7711 34.9584C32.9948 34.2346 36.4326 33.6427 40.0148 33.1935C38.8158 35.0704 37.6608 36.9754 36.5509 38.9067V38.9071ZM40.1176 67.8569C36.4168 67.4423 32.9273 66.881 29.7044 66.1767C30.7019 62.9429 31.9311 59.5829 33.3669 56.1653C34.3886 58.1461 35.4566 60.1026 36.5699 62.033C37.7148 64.0176 38.9003 65.9614 40.1176 67.8569ZM56.6875 81.6027C54.3995 79.1255 52.1176 76.3848 49.8891 73.4372C52.0527 73.5222 54.2582 73.5656 56.5 73.5656C58.803 73.5656 61.0796 73.5138 63.3204 73.4137C61.1202 76.4145 58.8988 79.1592 56.6875 81.6027ZM79.7262 55.9907C81.2365 59.446 82.5094 62.7883 83.5202 65.9667C80.2443 66.7171 76.7072 67.3214 72.9803 67.7701C74.1745 65.8699 75.331 63.9461 76.449 61.9998C77.5857 60.0214 78.6783 58.0179 79.7262 55.9907ZM72.2679 59.5794C70.5563 62.5634 68.7486 65.4909 66.8474 68.357C63.4037 68.6018 59.9523 68.7234 56.5 68.7216C52.9836 68.7216 49.5634 68.6118 46.2699 68.3974C44.3191 65.5378 42.4769 62.6053 40.747 59.6059H40.7475C39.0258 56.6225 37.4176 53.5745 35.9264 50.4685C37.4138 47.3618 39.0171 44.3124 40.7329 41.3267L40.7325 41.3271C42.4476 38.3407 44.2752 35.4206 46.2112 32.5734C49.5713 32.3182 53.0171 32.1853 56.4995 32.1853H56.5C59.9983 32.1853 63.4484 32.3195 66.8077 32.5765C68.7242 35.4195 70.5401 38.3295 72.252 41.301C73.9735 44.2801 75.598 47.3147 77.123 50.3999C75.6137 53.5166 73.9943 56.5783 72.2679 59.5794ZM82.2252 5.48056C86.0086 7.67067 87.4801 16.5024 85.1029 28.0842C84.9511 28.8231 84.7807 29.5757 84.5953 30.339C79.9071 29.2528 74.8168 28.4452 69.4873 27.9433C66.3827 23.506 63.1655 19.4717 59.936 15.9792C60.7824 15.1604 61.6489 14.3628 62.5348 13.5871C70.8767 6.30141 78.673 3.42468 82.2252 5.48056ZM56.5 40.2263C62.0723 40.2263 66.5897 44.7603 66.5897 50.3529C66.5897 55.9456 62.0723 60.4795 56.5 60.4795C50.9277 60.4795 46.4102 55.9456 46.4102 50.3529C46.4102 44.7603 50.9277 40.2263 56.5 40.2263Z" fill="#00D8FF"/>
        </g>
        <defs>
            <clipPath id="clip0_2_5687">
                <rect width="113" height="101" fill="white"/>
            </clipPath>
        </defs>
    </g>

    <g id="sassIcon">
        <g clip-path="url(#clip0_2_5689)">
            <path d="M100.673 50.0766C96.603 50.0975 93.0653 51.0694 90.1035 52.5063C89.0162 50.3721 87.9295 48.4708 87.738 47.076C87.5246 45.4493 87.2691 44.4561 87.5246 42.5122C87.7805 40.5683 88.9312 37.8001 88.9098 37.589C88.8887 37.3778 88.6538 36.3846 86.3098 36.3637C83.9658 36.3424 81.9413 36.8073 81.7068 37.42C81.4724 38.0326 81.025 39.4273 80.7266 40.8637C80.3216 42.9771 76.0386 50.5198 73.5881 54.471C72.7993 52.9291 72.1174 51.5765 71.968 50.499C71.755 48.8722 71.4991 47.879 71.755 45.9351C72.0109 43.9912 73.1617 41.2235 73.1402 41.0119C73.1187 40.8007 72.8843 39.8075 70.5403 39.7866C68.1958 39.7653 66.1713 40.2302 65.9373 40.8429C65.7029 41.4559 65.4469 42.8923 64.957 44.2871C64.4667 45.6818 58.7769 58.275 57.2852 61.5285C56.6824 62.8453 56.0501 64.1487 55.3886 65.4376C55.3886 65.4376 55.3672 65.501 55.3032 65.6066C55.0954 66.0107 54.8824 66.4122 54.6643 66.811V66.8318C54.3444 67.4028 54.0035 67.9307 53.833 67.9307C53.705 67.9307 53.4706 66.4095 53.8755 64.3387C54.7278 59.9652 56.7524 53.1615 56.7313 52.9291C56.7313 52.8022 57.1148 51.6191 55.4101 51.006C53.7475 50.3934 53.1511 51.4075 53.0017 51.4075C52.8527 51.4075 52.7458 51.7668 52.7458 51.7668C52.7458 51.7668 54.6003 44.118 49.2085 44.118C45.8417 44.118 41.1958 47.7734 38.8943 51.0694C36.278 52.4811 33.6639 53.8968 31.052 55.3166C29.7953 56.0139 28.4951 56.7113 27.2803 57.3661C27.1949 57.2818 27.1099 57.1758 27.0244 57.0915C20.5034 50.1822 8.442 45.3012 8.95339 36.0257C9.14534 32.6449 10.3171 23.7705 32.1178 12.9947C50.0608 4.22583 64.3392 6.65549 66.8111 12.0436C70.3484 19.7349 59.1608 34.0183 40.6204 36.0887C33.5455 36.8708 29.8373 34.1661 28.9 33.152C27.9197 32.0953 27.7703 32.0318 27.4079 32.2435C26.8115 32.5606 27.1949 33.5113 27.4079 34.0605C27.9622 35.4969 30.2422 38.0326 34.0994 39.2796C37.5091 40.378 45.7988 40.991 55.8361 37.1454C67.0666 32.8348 75.8466 20.8546 73.2682 10.8183C70.6893 0.633908 53.641 -2.72556 37.5091 2.95799C27.9197 6.33921 17.52 11.6634 10.0402 18.594C1.15363 26.834 -0.253039 33.997 0.322334 36.9976C2.38984 47.6465 17.2006 54.5771 23.1248 59.7114C22.8263 59.8804 22.5489 60.0286 22.3149 60.1555C19.3526 61.6132 8.05811 67.4658 5.24523 73.6568C2.04891 80.6716 5.75708 85.7009 8.20756 86.3765C15.8154 88.4686 23.6362 84.7076 27.8342 78.4953C32.0323 72.2834 31.5209 64.2119 29.5818 60.5144C29.5604 60.4722 29.5393 60.4296 29.4964 60.3875C30.2637 59.9439 31.052 59.479 31.8194 59.0354C33.2296 58.2088 34.6578 57.4126 36.1029 56.6474C35.3781 58.6126 34.8452 60.958 34.5897 64.3387C34.2698 68.3113 35.9105 73.4665 38.063 75.4947C39.0223 76.3828 40.1515 76.4037 40.8763 76.4037C43.3908 76.4037 44.5205 74.3329 45.7778 71.8819C47.3119 68.8818 48.6971 65.3954 48.6971 65.3954C48.6971 65.3954 46.971 74.8191 51.6595 74.8191C53.3641 74.8191 55.0902 72.6214 55.8575 71.5017V71.5226C55.8575 71.5226 55.9 71.4592 55.9855 71.3114C56.156 71.0368 56.2624 70.8674 56.2624 70.8674V70.8257C56.9443 69.6421 58.4789 66.9587 60.7589 62.5004C63.6998 56.7534 66.5342 49.5696 66.5342 49.5696C66.5342 49.5696 66.7901 51.3232 67.6634 54.239C68.1753 55.9505 69.2401 57.831 70.0929 59.648C69.411 60.5991 68.9846 61.127 68.9846 61.127L69.0061 61.1483C68.4518 61.8665 67.8554 62.6481 67.1945 63.4094C64.8716 66.1558 62.1016 69.3045 61.7178 70.2126C61.2699 71.2901 61.3768 72.0722 62.2296 72.7062C62.8475 73.1711 63.9553 73.234 65.085 73.1711C67.1735 73.0229 68.6437 72.5158 69.3681 72.1991C70.4978 71.7976 71.819 71.1846 73.0548 70.276C75.3352 68.6067 76.72 66.2192 76.5925 63.0714C76.5285 61.3386 75.9531 59.6059 75.2498 57.9787C75.4632 57.6833 75.6547 57.3874 75.8681 57.0915C79.4693 51.8724 82.2612 46.1462 82.2612 46.1462C82.2612 46.1462 82.5171 47.8998 83.3905 50.8161C83.8168 52.2951 84.6907 53.901 85.4575 55.4643C82.0693 58.1903 79.9807 61.3594 79.2349 63.4302C77.8926 67.2759 78.9365 69.0082 80.9185 69.4097C81.8133 69.6 83.092 69.1772 84.0298 68.7757C85.2231 68.3956 86.6297 67.7408 87.9724 66.7684C90.2529 65.0995 92.4474 62.775 92.3195 59.6272C92.2555 58.1903 91.8721 56.7743 91.3392 55.4009C94.2161 54.2182 97.9242 53.563 102.655 54.1122C112.799 55.2953 114.802 61.5706 114.418 64.2123C114.035 66.8531 111.904 68.29 111.201 68.7336C110.497 69.1777 110.263 69.3254 110.327 69.6421C110.412 70.107 110.753 70.0862 111.35 70.0014C112.181 69.8537 116.678 67.8672 116.869 63.0075C117.189 56.7956 111.222 50.0132 100.673 50.0766ZM22.4214 76.2346C19.0542 79.8687 14.3662 81.2421 12.3417 80.0803C10.1681 78.8333 11.0204 73.4665 15.1545 69.6213C17.669 67.2759 20.9083 65.0991 23.0608 63.7683C23.5507 63.4724 24.2755 63.0501 25.1493 62.5217C25.2983 62.437 25.3838 62.3948 25.3838 62.3948L25.8952 62.0776C27.4078 67.5713 25.9591 72.4103 22.4214 76.2346ZM46.9285 59.7114C45.7563 62.543 43.3058 69.7903 41.8141 69.3888C40.5354 69.0508 39.7466 63.5571 41.5582 58.1269C42.4745 55.4009 44.4136 52.147 45.5433 50.8796C47.3759 48.8509 49.4005 48.1744 49.8904 48.9991C50.5087 50.0766 47.6529 57.9365 46.9285 59.7114ZM67.152 69.3041C66.6617 69.5578 66.1932 69.7269 65.9798 69.6C65.8308 69.5153 66.1932 69.1772 66.1932 69.1772C66.1932 69.1772 68.7292 66.473 69.7305 65.2473C70.3063 64.5291 70.9877 63.684 71.7125 62.7329V63.0075C71.7125 66.2405 68.5583 68.4169 67.1516 69.3041H67.152ZM82.7511 65.7756C82.3887 65.5219 82.4527 64.6768 83.6674 62.0355C84.1363 61.0001 85.2441 59.2678 87.1411 57.5985C87.3541 58.2746 87.5035 58.9298 87.4821 59.5424C87.4606 63.6205 84.5202 65.1417 82.7511 65.7756Z" fill="#CD6799"/>
        </g>
        <defs>
            <clipPath id="clip0_2_5689">
                <rect width="117" height="87" fill="white"/>
            </clipPath>
        </defs>
    </g>

    <g id="typescriptIcon">
        <path d="M0 60V120H60H120V60V0H60H0V60Z" fill="#007ACC"/>
        <path d="M26.5373 60.3979L26.4992 65.3122H34.3087H42.1182L42.1182 87.5026V109.693H47.6421H53.1659V87.5026L53.1659 65.3122H60.9754H68.7849V60.4931C68.7849 57.8264 68.7278 55.5979 68.6516 55.5407C68.5944 55.4645 59.0897 55.4264 47.5659 55.4455L26.5944 55.5026L26.5373 60.3979Z" fill="white"/>
        <path d="M96.8265 55.3636C99.8741 56.1255 102.198 57.4779 104.331 59.6874C105.436 60.8684 107.074 63.0208 107.207 63.535C107.246 63.6874 102.026 67.1922 98.8646 69.1541C98.7503 69.2303 98.2931 68.7351 97.7789 67.9731C96.236 65.7255 94.6169 64.7541 92.1408 64.5827C88.5027 64.335 86.1598 66.2398 86.1789 69.4208C86.1789 70.3541 86.3122 70.9065 86.6931 71.6684C87.4931 73.3255 88.9789 74.316 93.6455 76.3351C102.236 80.0303 105.912 82.4684 108.198 85.935C110.75 89.8017 111.322 95.9731 109.588 100.564C107.684 105.554 102.96 108.945 96.3122 110.068C94.255 110.43 89.3789 110.373 87.1693 109.973C82.3503 109.116 77.7789 106.735 74.9598 103.611C73.855 102.392 71.7027 99.2112 71.836 98.9827C71.8931 98.9065 72.3884 98.6017 72.9408 98.2779C73.4741 97.9731 75.4931 96.8112 77.3979 95.7065L80.8455 93.7065L81.5693 94.7731C82.5789 96.316 84.7884 98.4303 86.1217 99.135C89.9503 101.154 95.2074 100.868 97.7979 98.5446C98.9027 97.535 99.3598 96.4874 99.3598 94.9446C99.3598 93.5541 99.1884 92.9446 98.4646 91.897C97.5312 90.5636 95.6265 89.4398 90.2169 87.097C84.0265 84.4303 81.3598 82.7731 78.9217 80.1446C77.5122 78.6208 76.1789 76.1827 75.6265 74.1446C75.1693 72.4493 75.055 68.2017 75.4169 66.4874C76.6931 60.5065 81.2074 56.335 87.7217 55.097C89.836 54.697 94.7503 54.8493 96.8265 55.3636Z" fill="white"/>
    </g>

    <g id="styledcomponentsIcon">
        <g clip-path="url(#clip0_1_1803)">
            <path d="M68.7673 118.279C68.9473 117.872 69.4015 117.589 69.7315 117.246C74.7666 111.967 79.8446 106.735 84.8111 101.391C86.3653 99.9558 87.5662 98.1804 88.32 96.2036C89.0739 94.2269 89.3601 92.1026 89.1563 89.9968C89.0004 89.0951 88.7958 88.2025 88.5435 87.3229C87.1894 88.6084 85.9296 89.7783 84.6611 90.9567C82.6899 92.7908 80.7273 94.6334 78.739 96.4461C77.5665 97.6415 76.059 98.4531 74.4156 98.7737C72.7721 99.0943 71.0701 98.9087 69.5344 98.2416C67.9797 97.6705 66.627 96.6553 65.6443 95.3221C64.6616 93.9889 64.092 92.3965 64.0064 90.7425C63.9604 90.5297 63.8988 90.3206 63.8222 90.1168C62.3095 91.4024 60.8611 92.5851 59.4256 93.8021L29.5877 119.085C29.382 119.261 29.1591 119.479 28.9663 119.65H68.7459L68.6859 119.612C68.4716 119.462 68.583 118.673 68.7673 118.279Z" fill="#FFCEBF"/>
            <path d="M27.1436 118.279C27.4974 117.818 27.9245 117.418 28.4077 117.096L69.7 82.0642C72.5168 79.6731 75.3207 77.2691 78.1118 74.8522C78.4567 74.6118 78.727 74.2791 78.8918 73.8924C79.5594 70.9831 79.654 67.9717 79.1703 65.0263C78.7418 65.3262 78.5104 65.4548 78.3132 65.6648C74.9322 68.6901 71.5683 71.7412 68.1702 74.7494C67.0445 75.8824 65.5885 76.6292 64.0116 76.8825C62.4346 77.1359 60.818 76.8826 59.3941 76.1592C57.9414 75.4734 56.7256 74.3709 55.9014 72.992C55.0773 71.6131 54.682 70.0201 54.766 68.4159V67.0275C54.1447 67.4817 53.6905 67.7859 53.2662 68.1287C36.7396 81.3615 20.2159 94.5842 3.69496 107.797C2.94933 108.393 2.05801 109.721 1.08098 108.431C0.103957 107.141 1.59092 106.61 2.34083 106.01C19.953 91.8774 37.5738 77.7576 55.2031 63.6507C58.0742 61.3496 58.2628 60.3854 56.3944 56.7301L55.2803 57.7757C52.2249 60.6168 49.1353 63.4193 46.1271 66.3075C44.8931 67.4978 43.3476 68.3148 41.6691 68.6641C39.9906 69.0135 38.2476 68.8809 36.6412 68.2818C35.0348 67.6827 33.6306 66.6415 32.5908 65.2784C31.5509 63.9153 30.9178 62.2858 30.7646 60.5782C30.1947 61.0067 29.7019 61.3196 29.2348 61.6838L3.09503 81.9443C2.64419 82.3864 2.13005 82.7591 1.5695 83.0498C1.14643 83.1777 0.692134 83.155 0.283936 82.9856V119.671H27.0922C26.9925 119.451 26.9453 119.21 26.9542 118.969C26.9631 118.727 27.028 118.491 27.1436 118.279Z" fill="#FFCEBF"/>
            <path d="M99.5652 1.82096C98.8367 4.20782 98.1297 6.59897 97.4912 9.01154C96.9014 10.7164 96.97 12.5802 97.6836 14.2371C98.3971 15.8941 99.704 17.2246 101.348 17.9676C106.376 20.6107 112.042 21.798 117.709 21.3958V2.22806C117.646 1.80781 117.669 1.37914 117.777 0.968207C117.897 0.73576 118.049 0.520916 118.227 0.329712H99.5481C99.8352 0.663958 99.7366 1.25103 99.5652 1.82096Z" fill="#FF6196"/>
            <path d="M62.051 42.9976C61.9621 45.137 61.2137 47.1966 59.9084 48.894C55.2418 54.9179 49.8828 60.3719 43.9417 65.1435C42.9836 66.0304 41.7693 66.591 40.4728 66.745C39.1764 66.8989 37.8646 66.6383 36.7254 66.0005C35.5916 65.5161 34.6356 64.6925 33.9887 63.6428C33.3419 62.5932 33.036 61.369 33.113 60.1384C33.2502 58.627 33.8777 57.202 34.8999 56.0803C41.5434 49.7455 48.7414 44.019 56.4074 38.9695C56.9094 38.5758 57.5226 38.3499 58.1601 38.3237C58.7976 38.2976 59.4272 38.4725 59.9598 38.8238C60.6598 39.2585 61.2258 39.8786 61.5949 40.6153C61.9641 41.352 62.1219 42.1766 62.051 42.9976Z" fill="#FF87AF"/>
            <path d="M56.9126 68.97C56.8131 68.0228 56.9347 67.0654 57.2678 66.1731C57.6009 65.2809 58.1365 64.478 58.8324 63.8277C65.3372 57.8281 72.3163 52.3638 79.7013 47.4883C79.9241 47.3468 80.1298 47.2054 80.3741 47.0597C81.0192 46.594 81.8008 46.356 82.5959 46.3832C83.3911 46.4103 84.1546 46.7011 84.7664 47.2097C85.3584 47.7112 85.7772 48.3865 85.9634 49.1396C86.1496 49.8928 86.0936 50.6854 85.8034 51.4049C84.8691 54.5168 83.1448 57.3337 80.7983 59.5811C76.0329 64.2758 71.1753 68.8762 66.2286 73.3795C65.4836 74.1456 64.5051 74.6422 63.4469 74.7911C62.3888 74.9401 61.3111 74.7329 60.3836 74.2022C59.409 73.6958 58.5791 72.9499 57.9719 72.0347C57.3648 71.1194 57.0002 70.0648 56.9126 68.97Z" fill="#FF87AF"/>
            <path d="M87.8344 71.8015C86.6346 73.0871 85.4004 74.3126 84.2477 75.6282C83.9011 76.1367 83.6136 76.683 83.3907 77.2566C84.0249 77.4451 84.7662 77.9422 85.2804 77.7665C87.8987 76.888 90.4527 75.8339 93.3281 74.724C92.7024 76.1638 92.231 77.4922 91.5668 78.7092C88.8305 83.3078 85.4038 87.4587 81.4066 91.0164C79.8868 92.4819 78.3084 93.8832 76.6715 95.2201C75.8046 95.9395 74.7622 96.4157 73.6509 96.6001C72.5396 96.7844 71.3992 96.6702 70.3465 96.2692C69.2938 95.8681 68.3665 95.1947 67.6595 94.3176C66.9525 93.4406 66.4912 92.3916 66.3227 91.2778C66.254 90.6585 66.3087 90.0317 66.4838 89.4337C66.6589 88.8357 66.9507 88.2784 67.3426 87.7939C73.174 81.4614 79.8384 75.9503 87.1531 71.4115C87.242 71.3771 87.3363 71.3582 87.4316 71.3558L87.8344 71.8015Z" fill="#FF87AF"/>
            <path d="M97.6724 54.7335L105.004 22.1659L110.147 23.37L107.494 31.4305C105.017 38.9296 102.51 46.4287 100.093 53.9364C99.6221 55.3248 99.0051 55.5819 97.6724 54.7335Z" fill="#FF6196"/>
            <path d="M89.3857 73.8885C90.1614 70.9274 90.9327 68.1892 91.5841 65.421C92.2189 62.7364 93.4263 60.2207 95.1236 58.0461C96.1649 56.6791 97.3348 57.2234 98.5304 57.519C99.636 57.789 99.9145 58.5989 99.9616 59.6616C100.136 62.6005 99.241 65.5031 97.4419 67.8335C95.3002 70.4887 92.5317 72.5695 89.3857 73.8885Z" fill="#FF6196"/>
            <path d="M119.944 3.83936C120.008 2.88498 119.983 1.92674 119.871 0.976845C119.783 0.711516 119.607 0.483621 119.374 0.329779C119.184 0.175101 118.961 0.0652523 118.723 0.00838844C118.585 -0.0173228 118.393 0.124089 118.208 0.325493C118.03 0.516698 117.878 0.731542 117.758 0.96399C117.65 1.37492 117.627 1.80359 117.69 2.22384V21.3873C112.023 21.7895 106.357 20.6022 101.329 17.9591C99.685 17.2161 98.3781 15.8856 97.6646 14.2286C96.951 12.5717 96.8824 10.7079 97.4722 9.00304C98.1107 6.59046 98.8178 4.19932 99.5462 1.81246C99.7177 1.24253 99.8162 0.655454 99.5462 0.321208C99.3961 0.158494 99.1888 0.0602123 98.9677 0.0469556C98.6847 0.0500088 98.4105 0.146413 98.1878 0.321208C97.8674 0.512888 97.6121 0.796593 97.4551 1.1354C96.598 3.70652 95.8438 6.30336 95.1882 8.9259C94.9407 9.95936 94.874 11.0279 94.9911 12.0841C95.1569 13.9952 95.8676 15.8186 97.0389 17.3377C98.2102 18.8569 99.7928 20.0081 101.599 20.6545C102.409 20.993 102.884 21.3273 102.657 22.3943C102.344 23.7484 102.04 25.1026 101.732 26.461C99.632 35.6656 97.5436 44.8745 95.4667 54.0877C95.4082 54.4985 95.2275 54.8822 94.9482 55.189C93.5793 56.2771 92.4291 57.6148 91.5586 59.1314C90.4493 61.1327 89.6817 63.3052 89.2875 65.5592C89.2118 66.2782 88.952 66.9655 88.5331 67.5548C88.1143 68.144 87.5505 68.6153 86.8963 68.9231C85.1094 69.8273 83.4682 70.9971 81.4841 72.2141C81.6164 69.8282 81.5906 67.4361 81.407 65.0535C81.256 64.3206 81.288 63.5618 81.5003 62.8442C81.7126 62.1267 82.0985 61.4725 82.624 60.9397C85.2375 58.3506 87.1005 55.1015 88.0148 51.538C88.2878 50.712 88.3627 49.8333 88.2333 48.9729C88.104 48.1126 87.774 47.2948 87.27 46.5856C86.7661 45.8764 86.1023 45.2957 85.3325 44.8905C84.5626 44.4853 83.7081 44.267 82.8382 44.2531C81.4298 44.2374 80.047 44.6304 78.8573 45.3844C74.7683 48.1767 70.7504 51.0715 66.8073 54.0663C64.4633 55.8318 62.2564 57.7858 59.9852 59.637C59.8873 59.5319 59.8025 59.4154 59.7324 59.2899C59.689 58.9744 59.604 58.6661 59.4796 58.3729C57.5812 55.4418 58.8968 53.3121 60.958 51.1223C63.1053 48.8714 64.2919 45.8727 64.2661 42.7619C64.3327 41.1769 63.8363 39.6194 62.8649 38.3653C62.3474 37.7286 61.7096 37.2001 60.988 36.8097C59.9629 36.2487 58.7908 36.0145 57.6289 36.1386C56.467 36.2627 55.3708 36.7391 54.4873 37.5039L53.2917 38.361C50.5621 40.315 47.7981 42.2177 45.1713 44.3089C41.3364 47.3705 37.5841 50.5341 33.9183 53.7963C32.2042 55.309 30.953 57.3744 29.1746 58.78C19.9014 66.1034 10.5297 73.294 1.1922 80.5317C0.871132 80.7232 0.575909 80.9551 0.313735 81.2216C0.286745 81.2606 0.263774 81.3023 0.245172 81.3459C0.0480521 81.8044 -0.119071 82.5629 0.112331 82.8414C0.169054 82.9019 0.23761 82.95 0.313735 82.9828C0.721934 83.1523 1.17623 83.175 1.5993 83.0471C2.15985 82.7563 2.67399 82.3837 3.12483 81.9415L29.2646 61.6811C29.7317 61.3168 30.2245 60.9869 30.7944 60.5755C30.9476 62.2831 31.5807 63.9125 32.6206 65.2757C33.6604 66.6388 35.0646 67.68 36.671 68.2791C38.2774 68.8782 40.0204 69.0107 41.6989 68.6614C43.3774 68.312 44.9229 67.4951 46.1569 66.3048C49.1565 63.4166 52.2547 60.6141 55.3101 57.773L56.4242 56.7274C58.2926 60.3827 58.104 61.3468 55.2329 63.648C37.5893 77.7663 19.9585 91.8875 2.34064 106.012C1.59073 106.611 0.108046 107.156 1.08079 108.433C2.05353 109.71 2.94914 108.394 3.69476 107.798C20.2242 94.5972 36.7423 81.3787 53.2489 68.1432C53.6774 67.8003 54.1273 67.4961 54.7487 67.0419V68.4303C54.6647 70.0345 55.0599 71.6275 55.8841 73.0064C56.7082 74.3853 57.924 75.4879 59.3767 76.1736C60.8007 76.897 62.4173 77.1503 63.9942 76.897C65.5711 76.6436 67.0271 75.8968 68.1528 74.7638C71.551 71.7642 74.9149 68.7045 78.2959 65.6792C78.5102 65.4863 78.7587 65.3406 79.153 65.0407C79.6367 67.9861 79.542 70.9975 78.8744 73.9068C78.7096 74.2936 78.4394 74.6262 78.0945 74.8667C75.3005 77.2807 72.4966 79.6847 69.6826 82.0787L28.4075 117.115C27.9243 117.437 27.4972 117.836 27.1434 118.297C27.0305 118.507 26.9672 118.741 26.9582 118.979C26.9493 119.217 26.9951 119.455 27.092 119.673C27.2856 119.818 27.5094 119.917 27.7468 119.964C27.9842 120.011 28.2291 120.004 28.4633 119.943C28.648 119.889 28.8181 119.794 28.9603 119.664C29.1746 119.493 29.3889 119.274 29.5817 119.099L59.4196 93.8158C60.8551 92.5988 62.3035 91.399 63.8162 90.1306C63.8928 90.3343 63.9544 90.5434 64.0005 90.7562C64.0861 92.4102 64.6556 94.0027 65.6383 95.3358C66.6211 96.669 67.9737 97.6842 69.5284 98.2553C71.0641 98.9225 72.7662 99.108 74.4096 98.7874C76.053 98.4669 77.5606 97.6552 78.733 96.4598C80.7213 94.6472 82.684 92.8045 84.6552 90.9705C85.9407 89.792 87.1834 88.6093 88.5376 87.3366C88.7898 88.2162 88.9944 89.1089 89.1503 90.0106C89.3473 92.1094 89.0578 94.2253 88.3042 96.1941C87.5506 98.1628 86.3532 99.9313 84.8051 101.362C79.8386 106.71 74.7606 111.942 69.7255 117.217C69.3955 117.56 68.9413 117.843 68.7613 118.25C68.5813 118.657 68.4657 119.454 68.6799 119.626L68.7399 119.664C69.1892 119.883 69.6945 119.959 70.1883 119.883C70.3267 119.854 70.45 119.777 70.5354 119.664C70.6554 119.54 70.7711 119.386 70.8868 119.27C74.9663 115.053 79.0672 110.858 83.1168 106.611C84.7513 104.955 86.288 103.205 87.7191 101.371C89.5851 99.3049 90.8224 96.7492 91.2855 94.0042C91.7486 91.2591 91.4181 88.439 90.3331 85.8754C90.2164 85.3037 90.3304 84.7092 90.6502 84.2213C90.9287 83.7413 91.2372 83.2742 91.5543 82.8114C92.569 81.494 93.4141 80.0544 94.0698 78.5262C95.3368 74.7758 97.2817 71.2898 99.8076 68.2417C100.969 66.7695 101.768 65.0448 102.14 63.207C102.512 61.3692 102.447 59.4696 101.95 57.6616C101.775 56.9741 101.775 56.2535 101.95 55.5661C104.119 48.8512 106.351 42.1577 108.562 35.4599L111.519 26.4867L112.432 23.7142C114.377 23.7142 116.211 23.6756 118.037 23.7142C119.554 23.757 120.017 23.0457 120 21.5715C119.91 15.658 119.944 9.74866 119.944 3.83936ZM43.9371 65.1435C42.9791 66.0304 41.7647 66.591 40.4683 66.745C39.1719 66.8989 37.86 66.6383 36.7208 66.0006C35.587 65.5162 34.631 64.6925 33.9842 63.6429C33.3373 62.5932 33.0314 61.369 33.1084 60.1384C33.2457 58.6271 33.8732 57.202 34.8953 56.0803C41.5388 49.7455 48.7368 44.019 56.4028 38.9695C56.8212 38.6737 57.2972 38.4693 57.7998 38.3696C58.1369 38.3074 58.4825 38.3074 58.8196 38.3696C59.2234 38.4482 59.6086 38.6023 59.9552 38.8238C60.656 39.2588 61.2224 39.8796 61.5916 40.6171C61.9607 41.3547 62.1182 42.1802 62.0464 43.0019C61.9576 45.1413 61.2092 47.2009 59.9038 48.8983C55.237 54.9207 49.878 60.3733 43.9371 65.1435ZM66.2202 73.4097C65.4752 74.1758 64.4966 74.6724 63.4385 74.8213C62.3803 74.9703 61.3027 74.7631 60.3752 74.2324C59.3988 73.7249 58.5678 72.977 57.9605 72.0593C57.3533 71.1416 56.9897 70.0844 56.9042 68.9874C56.8047 68.0401 56.9263 67.0828 57.2594 66.1905C57.5925 65.2982 58.1281 64.4954 58.8239 63.8451C65.3288 57.8454 72.3078 52.3811 79.6929 47.5056C79.9157 47.3642 80.1214 47.2228 80.3657 47.0771C81.0107 46.6114 81.7923 46.3734 82.5875 46.4005C83.3826 46.4277 84.1462 46.7185 84.758 47.2271C85.35 47.7285 85.7688 48.4038 85.955 49.157C86.1412 49.9101 86.0852 50.7028 85.795 51.4223C84.8607 54.5342 83.1364 57.351 80.7899 59.5985C76.0633 64.3208 71.1482 68.8674 66.2288 73.3925L66.2202 73.4097ZM91.5501 78.7276C88.8175 83.319 85.3967 87.4638 81.407 91.0176C79.8872 92.4831 78.3088 93.8844 76.6718 95.2214C75.8049 95.9408 74.7625 96.417 73.6512 96.6013C72.5399 96.7856 71.3996 96.6714 70.3469 96.2704C69.2942 95.8694 68.3669 95.1959 67.6599 94.3189C66.9529 93.4419 66.4915 92.3928 66.323 91.279C66.2543 90.6597 66.3091 90.0329 66.4842 89.435C66.6592 88.837 66.9511 88.2796 67.3429 87.7951C73.1743 81.4627 79.8387 75.9515 87.1534 71.4128C87.2424 71.3783 87.3366 71.3594 87.432 71.3571L87.8605 71.7856C86.6606 73.0712 85.4265 74.2967 84.2738 75.6123C83.9272 76.1208 83.6396 76.6671 83.4167 77.2407C84.0509 77.4292 84.7923 77.9263 85.3065 77.7506C87.3763 77.0564 89.4117 76.2508 91.5929 75.3937L93.3541 74.7081C92.6942 76.1651 92.2228 77.4935 91.5586 78.7105L91.5501 78.7276ZM97.4336 67.8646C95.8352 69.8996 93.8317 71.5806 91.5501 72.8012C90.8444 73.1954 90.1202 73.564 89.3775 73.9068C90.1402 70.9885 90.903 68.2846 91.5501 65.5506L91.5758 65.4392C92.2106 62.7546 93.418 60.2389 95.1153 58.0644C96.1566 56.6974 97.3265 57.2416 98.5221 57.5373C99.6277 57.8073 99.9062 58.6172 99.9533 59.6799C100.129 62.6162 99.2372 65.5171 97.4422 67.8475L97.4336 67.8646ZM107.461 31.4404C104.984 38.9395 102.477 46.4386 100.06 53.9463C99.6062 55.3561 98.9892 55.6132 97.6565 54.7648L104.011 26.5124L104.988 22.1758L110.131 23.3799L109.098 26.5124L107.461 31.4404Z" fill="#1F2626"/>
        </g>
        <defs>
            <clipPath id="clip0_1_1803">
                <rect width="120" height="120" fill="white"/>
            </clipPath>
        </defs>
    </g>

    <!--    social    -->

    <g id="githubSocialIcon">
        <g clip-path="url(#clip0_4537_874)">
            <path fill-rule="evenodd" clip-rule="evenodd" d="M10 0C4.475 0 0 4.475 0 10C0 14.425 2.8625 18.1625 6.8375 19.4875C7.3375 19.575 7.525 19.275 7.525 19.0125C7.525 18.775 7.5125 17.9875 7.5125 17.15C5 17.6125 4.35 16.5375 4.15 15.975C4.0375 15.6875 3.55 14.8 3.125 14.5625C2.775 14.375 2.275 13.9125 3.1125 13.9C3.9 13.8875 4.4625 14.625 4.65 14.925C5.55 16.4375 6.9875 16.0125 7.5625 15.75C7.65 15.1 7.9125 14.6625 8.2 14.4125C5.975 14.1625 3.65 13.3 3.65 9.475C3.65 8.3875 4.0375 7.4875 4.675 6.7875C4.575 6.5375 4.225 5.5125 4.775 4.1375C4.775 4.1375 5.6125 3.875 7.525 5.1625C8.325 4.9375 9.175 4.825 10.025 4.825C10.875 4.825 11.725 4.9375 12.525 5.1625C14.4375 3.8625 15.275 4.1375 15.275 4.1375C15.825 5.5125 15.475 6.5375 15.375 6.7875C16.0125 7.4875 16.4 8.375 16.4 9.475C16.4 13.3125 14.0625 14.1625 11.8375 14.4125C12.2 14.725 12.5125 15.325 12.5125 16.2625C12.5125 17.6 12.5 18.675 12.5 19.0125C12.5 19.275 12.6875 19.5875 13.1875 19.4875C15.1726 18.8173 16.8976 17.5414 18.1197 15.8395C19.3418 14.1375 19.9994 12.0952 20 10C20 4.475 15.525 0 10 0Z"/>
        </g>
        <defs>
            <clipPath id="clip0_4537_874">
                <rect width="20" height="20" fill="white"/>
            </clipPath>
        </defs>
    </g>

    <g id="instagramSocialIcon">
        <path d="M15.6516 2.09998H5.34844C3.55687 2.09998 2.1 3.55628 2.1 5.34715V8.77799V15.6528C2.1 17.4437 3.55687 18.9 5.34844 18.9H15.6516C17.4431 18.9 18.9 17.4437 18.9 15.6528V8.77143V5.34058C18.8934 3.55628 17.4366 2.09998 15.6516 2.09998ZM16.5834 4.03516H16.9575V4.40251V6.88217L14.1159 6.88873L14.1094 4.04172L16.5834 4.03516ZM8.09812 8.77143C8.63625 8.03016 9.50906 7.53816 10.4934 7.53816C11.4778 7.53816 12.3506 8.0236 12.8887 8.77143C13.2431 9.25687 13.4466 9.85382 13.4466 10.4967C13.4466 12.1236 12.1209 13.4552 10.4869 13.4552C8.85281 13.4552 7.54031 12.1236 7.54031 10.4967C7.54031 9.85382 7.75031 9.25687 8.09812 8.77143ZM17.2594 15.6462C17.2594 16.5318 16.5375 17.2534 15.6516 17.2534H5.34844C4.4625 17.2534 3.74062 16.5318 3.74062 15.6462V8.77143H6.2475C6.03094 9.30279 5.90625 9.88662 5.90625 10.4967C5.90625 13.0288 7.96687 15.0887 10.5 15.0887C13.0331 15.0887 15.0937 13.0288 15.0937 10.4967C15.0937 9.88662 14.9691 9.30279 14.7525 8.77143H17.2594V15.6462Z"/>
    </g>

    <g id="linkedinSocialIcon">
        <path d="M5.80637 7.88635H2.53296V18.3626H5.80637V7.88635Z"/>
        <path d="M4.10079 2.94019C2.89376 2.94019 2.10001 3.72082 2.10001 4.75729C2.10001 5.77408 2.86752 6.57439 4.05487 6.57439H4.08111C5.31437 6.57439 6.08189 5.76752 6.07533 4.75729C6.04909 3.72082 5.30781 2.94019 4.10079 2.94019Z"/>
        <path d="M14.7476 7.78796C12.8714 7.78796 11.6972 8.81131 11.4807 9.53291V7.88636H7.8006C7.84652 8.75883 7.8006 18.3626 7.8006 18.3626H11.4807V12.7014C11.4807 12.3799 11.4676 12.065 11.5594 11.842C11.8087 11.2123 12.3532 10.5563 13.3306 10.5563C14.6098 10.5563 15.1871 11.5271 15.1871 12.9441V18.3626H18.9V12.5374C18.9 9.29675 17.0764 7.78796 14.7476 7.78796Z"/>
    </g>

    <g id="telegramSocialIcon">
        <path d="M18.9057 4.76449L16.3705 16.7208C16.1791 17.5644 15.6804 17.7745 14.9717 17.3772L11.1085 14.5305L9.24472 16.3235C9.0383 16.5299 8.86608 16.7022 8.46824 16.7022L8.74607 12.7681L15.9054 6.29885C16.2169 6.02162 15.8376 5.86741 15.4218 6.14524L6.57084 11.7186L2.76043 10.5257C1.93174 10.2671 1.91674 9.69701 2.93325 9.29917L17.837 3.55716C18.5271 3.29854 19.1308 3.71018 18.9057 4.76449Z"/>
    </g>

    <g id="vkSocialIcon">
        <path d="M18.1696 13.9941C17.8038 13.5391 17.3881 13.1314 16.9861 12.737C16.8432 12.5968 16.6954 12.4518 16.5529 12.3076C16.1439 11.8932 16.129 11.7375 16.4529 11.2668C16.6769 10.9424 16.9145 10.6175 17.1442 10.3033C17.3526 10.0183 17.568 9.72351 17.7746 9.42777L17.817 9.36697C18.2117 8.80103 18.6199 8.21583 18.8372 7.50988C18.8936 7.32363 18.9528 7.04955 18.8174 6.82036C18.682 6.59137 18.4195 6.52151 18.2337 6.48888C18.1418 6.47273 18.0506 6.47053 17.9659 6.47053L15.3809 6.46861L15.3595 6.46842C14.9687 6.46842 14.7053 6.65927 14.5544 7.05194C14.4103 7.42713 14.252 7.82665 14.0714 8.20653C13.7119 8.96298 13.2554 9.83425 12.5948 10.5609L12.5669 10.5918C12.4889 10.6787 12.4005 10.777 12.3359 10.777C12.326 10.777 12.3152 10.7751 12.303 10.7711C12.1662 10.7159 12.0744 10.3726 12.0785 10.213C12.0786 10.2108 12.0786 10.2086 12.0786 10.2064L12.0768 7.1105C12.0768 7.09976 12.0761 7.08913 12.0747 7.07849C12.009 6.57522 11.8633 6.26195 11.3129 6.15026C11.2983 6.14724 11.2834 6.14575 11.2685 6.14575H8.5806C8.14268 6.14575 7.90138 6.33018 7.67456 6.60623C7.61334 6.68002 7.48589 6.83364 7.54906 7.01998C7.61315 7.20911 7.8212 7.24955 7.88894 7.26268C8.22522 7.32899 8.41477 7.54213 8.46846 7.91453C8.56219 8.56121 8.57371 9.25144 8.50471 10.0868C8.48547 10.3189 8.44742 10.4982 8.38471 10.6514C8.37015 10.6872 8.31849 10.8038 8.26582 10.8039C8.24908 10.8039 8.20067 10.7971 8.11248 10.7341C7.90397 10.5861 7.75142 10.3749 7.57357 10.114C6.96853 9.22796 6.46074 8.25191 6.02097 7.12938C5.85787 6.71615 5.55327 6.48481 5.16289 6.478C4.73395 6.47125 4.34504 6.46799 3.97413 6.46799C3.56886 6.46799 3.19314 6.47187 2.82625 6.47978C2.51217 6.48553 2.29492 6.58308 2.18061 6.76996C2.06611 6.95697 2.07356 7.20264 2.20276 7.50001C3.23702 9.88254 4.17478 11.6149 5.24345 13.1171C5.99225 14.1683 6.74333 14.8959 7.60686 15.4068C8.51664 15.9461 9.5362 16.2083 10.7237 16.2083C10.8583 16.2083 10.9975 16.2048 11.1379 16.198C11.8279 16.1632 12.0839 15.9044 12.1163 15.2082C12.1317 14.8525 12.1692 14.4793 12.338 14.1611C12.4445 13.9606 12.5439 13.9606 12.5765 13.9606C12.6394 13.9606 12.7174 13.9906 12.8011 14.0468C12.9513 14.1484 13.0801 14.2845 13.1857 14.4034C13.285 14.5163 13.3833 14.6304 13.4817 14.7446C13.6939 14.9909 13.9134 15.2456 14.1427 15.4871C14.6445 16.0162 15.1973 16.2488 15.8323 16.1983H18.2023C18.2073 16.1983 18.2124 16.1981 18.2175 16.1978C18.4536 16.1817 18.6582 16.0459 18.7786 15.8254C18.9279 15.5522 18.9249 15.2037 18.7706 14.893C18.5956 14.5415 18.3685 14.2413 18.1696 13.9941Z"/>
    </g>

    <!--  logo  -->

    <g id="logoIcon">
        <g clip-path="url(#clip0_2_5657)">
            <path d="M12.5581 0V3.83066C11.5028 3.83066 10.6796 3.98157 10.0882 4.28338C9.49679 4.57357 9.24169 5.15977 9.32287 6.04199L9.86206 11.1785C10.0012 12.4786 9.85626 13.5292 9.42722 14.3301C9.00978 15.131 8.36623 15.7464 7.49655 16.1758C6.63848 16.5938 5.62386 16.8897 4.45271 17.0638C5.69343 17.2495 6.74284 17.5514 7.60092 17.9693C8.45899 18.3871 9.08516 18.9907 9.47941 19.7801C9.87366 20.5695 10.0012 21.6258 9.86206 22.9492L9.32287 28.0857C9.24169 28.9679 9.49679 29.5541 10.0882 29.8443C10.6796 30.146 11.5028 30.297 12.5581 30.297V34.1277C9.35765 34.1277 7.1081 33.6401 5.80939 32.6651C4.52229 31.7016 4.00048 30.0475 4.24398 27.7026L4.76579 22.7227C4.85856 21.8406 4.70782 21.1499 4.31357 20.6507C3.93091 20.1516 3.36272 19.8033 2.60901 19.6059C1.85529 19.3971 0.985626 19.2926 0 19.2926V14.8351C0.97403 14.8351 1.8379 14.7364 2.59162 14.5391C3.34533 14.3301 3.91932 13.9761 4.31357 13.477C4.70782 12.9778 4.85856 12.2871 4.76579 11.4049L4.24398 6.45987C3.98889 4.06861 4.51068 2.39706 5.80939 1.4452C7.1081 0.481734 9.35765 0 12.5581 0Z" fill="black"/>
            <path d="M27.633 4.50977C30.5087 4.50977 32.6771 5.62414 34.1381 7.85288C35.6108 10.07 36.3471 13.1636 36.3471 17.1335C36.3471 21.115 35.6108 24.2318 34.1381 26.4838C32.6771 28.7242 30.5087 29.8443 27.633 29.8443C24.7342 29.8443 22.5541 28.7242 21.0931 26.4838C19.6436 24.2318 18.9189 21.115 18.9189 17.1335C18.9189 13.1636 19.6436 10.07 21.0931 7.85288C22.5541 5.62414 24.7342 4.50977 27.633 4.50977ZM27.633 8.49713C26.4039 8.49713 25.5052 9.15879 24.937 10.4821C24.3689 11.7938 24.0847 14.0109 24.0847 17.1335C24.0847 18.1551 24.1022 19.0663 24.1369 19.8672C24.1718 20.6566 24.224 21.3589 24.2935 21.9741L30.1724 9.66374C29.8942 9.22264 29.5463 8.92083 29.1289 8.75831C28.7231 8.5842 28.2244 8.49713 27.633 8.49713ZM31.1465 17.1335C31.1465 15.7986 31.1175 14.6726 31.0595 13.7555L25.511 25.2302C25.7662 25.4739 26.0676 25.6422 26.4154 25.7351C26.775 25.8279 27.1808 25.8744 27.633 25.8744C28.4564 25.8744 29.1231 25.5958 29.6333 25.0387C30.1551 24.4815 30.5377 23.5644 30.7812 22.2875C31.0248 20.999 31.1465 19.281 31.1465 17.1335Z" fill="black"/>
            <path d="M48.5002 4.50977C51.3759 4.50977 53.5443 5.62414 55.0053 7.85288C56.478 10.07 57.2142 13.1636 57.2142 17.1335C57.2142 21.115 56.478 24.2318 55.0053 26.4838C53.5443 28.7242 51.3759 29.8443 48.5002 29.8443C45.6012 29.8443 43.4213 28.7242 41.9603 26.4838C40.5108 24.2318 39.7861 21.115 39.7861 17.1335C39.7861 13.1636 40.5108 10.07 41.9603 7.85288C43.4213 5.62414 45.6012 4.50977 48.5002 4.50977ZM48.5002 8.49713C47.2711 8.49713 46.3724 9.15879 45.8042 10.4821C45.2361 11.7938 44.9519 14.0109 44.9519 17.1335C44.9519 18.1551 44.9694 19.0663 45.0041 19.8672C45.0389 20.6566 45.0911 21.3589 45.1607 21.9741L51.0396 9.66374C50.7613 9.22264 50.4134 8.92083 49.9961 8.75831C49.5901 8.5842 49.0915 8.49713 48.5002 8.49713ZM52.0137 17.1335C52.0137 15.7986 51.9847 14.6726 51.9267 13.7555L46.3782 25.2302C46.6332 25.4739 46.9348 25.6422 47.2826 25.7351C47.6422 25.8279 48.048 25.8744 48.5002 25.8744C49.3234 25.8744 49.9902 25.5958 50.5005 25.0387C51.0222 24.4815 51.4049 23.5644 51.6484 22.2875C51.8919 20.999 52.0137 19.281 52.0137 17.1335Z" fill="black"/>
            <path d="M68.1146 29.8095L62.8966 28.1902L71.889 9.26321H61.2964V5.11914H77.4549V8.84532L68.1146 29.8095Z" fill="black"/>
            <path d="M84.4419 0C87.6423 0 89.8861 0.481734 91.1732 1.4452C92.4719 2.40867 92.9995 4.06862 92.756 6.42505L92.2342 11.4049C92.1414 12.2871 92.2921 12.9778 92.6864 13.477C93.0807 13.9761 93.6488 14.3301 94.3909 14.5391C95.1447 14.7364 96.0144 14.8351 97 14.8351V19.2926C96.0259 19.2926 95.1621 19.3971 94.4083 19.6059C93.6547 19.8033 93.0807 20.1516 92.6864 20.6507C92.2921 21.1499 92.1414 21.8406 92.2342 22.7227L92.756 27.6678C93.0227 30.0475 92.5009 31.719 91.1905 32.6824C89.8918 33.646 87.6423 34.1277 84.4419 34.1277V30.297C85.5088 30.297 86.3378 30.146 86.9291 29.8443C87.5206 29.5541 87.7699 28.9679 87.6772 28.0857L87.1379 22.9492C86.9988 21.6374 87.1379 20.5868 87.5553 19.7976C87.9844 18.9965 88.6338 18.3871 89.5035 17.9693C90.373 17.5397 91.3935 17.238 92.5646 17.0638C91.3239 16.8781 90.2688 16.5763 89.3991 16.1584C88.5409 15.7405 87.9149 15.1369 87.5206 14.3476C87.1263 13.5466 86.9988 12.4903 87.1379 11.1785L87.6772 6.04199C87.7699 5.15977 87.5147 4.57357 86.9118 4.28338C86.3204 3.98157 85.4971 3.83066 84.4419 3.83066V0Z" fill="black"/>
            <path d="M12.2746 42.1621C13.2417 42.1621 14.0209 42.4024 14.6122 42.883C15.2037 43.3635 15.635 44.0426 15.9064 44.9202C16.1846 45.7977 16.3238 46.839 16.3238 48.0439C16.3238 49.1862 16.1568 50.2065 15.8229 51.1049C15.4889 51.9964 15.0054 52.6999 14.3723 53.2153C13.7391 53.7238 12.9703 53.978 12.0659 53.978C10.9875 53.978 10.1108 53.5914 9.43597 52.8182V57.9061L6.13818 58.2509V42.5278H9.06028L9.20639 43.771C9.65862 43.1929 10.1526 42.782 10.6883 42.5382C11.224 42.2875 11.7528 42.1621 12.2746 42.1621ZM11.2519 44.5964C10.8692 44.5964 10.5318 44.7113 10.2396 44.9411C9.94735 45.1709 9.67948 45.4843 9.43597 45.8813V50.5617C9.66557 50.903 9.9056 51.1537 10.1561 51.3139C10.4135 51.474 10.7161 51.5542 11.064 51.5542C11.6484 51.5542 12.1041 51.2895 12.4312 50.7601C12.7582 50.2238 12.9216 49.3325 12.9216 48.0857C12.9216 47.1663 12.8555 46.456 12.7233 45.9545C12.5912 45.4461 12.3999 45.0943 12.1493 44.8993C11.8989 44.6973 11.5997 44.5964 11.2519 44.5964Z" fill="black"/>
            <path d="M27.9881 50.4259C27.9881 50.8437 28.0437 51.1467 28.1551 51.3348C28.2733 51.5228 28.4612 51.6657 28.7186 51.7631L28.0403 53.9362C27.3862 53.8735 26.8332 53.7307 26.3809 53.5078C25.9356 53.278 25.5843 52.9332 25.3269 52.4736C24.9025 52.982 24.3598 53.3615 23.6989 53.6123C23.0379 53.856 22.3631 53.978 21.6743 53.978C20.5332 53.978 19.6218 53.6541 18.94 53.0063C18.2651 52.3517 17.9277 51.5124 17.9277 50.4886C17.9277 49.2837 18.3974 48.3538 19.3366 47.6991C20.2827 47.0445 21.6116 46.7172 23.3231 46.7172H24.8155V46.2992C24.8155 45.164 24.085 44.5964 22.6239 44.5964C22.2692 44.5964 21.8134 44.6486 21.2568 44.7531C20.7002 44.8505 20.1436 44.9932 19.587 45.1813L18.8252 42.9875C19.5419 42.7159 20.2863 42.5103 21.0585 42.3711C21.8377 42.2318 22.5335 42.1621 23.1457 42.1621C24.7946 42.1621 26.0121 42.4999 26.7983 43.1754C27.5915 43.8441 27.9881 44.8122 27.9881 46.0798V50.4259ZM22.8117 51.6169C23.1666 51.6169 23.5389 51.5124 23.9285 51.3034C24.3181 51.0876 24.6137 50.7846 24.8155 50.3946V48.5977H24.0015C23.0831 48.5977 22.4083 48.7404 21.9769 49.0259C21.5456 49.3045 21.3299 49.7155 21.3299 50.2588C21.3299 50.6836 21.4585 51.0179 21.716 51.2616C21.9804 51.4985 22.3457 51.6169 22.8117 51.6169Z" fill="black"/>
            <path d="M41.6355 42.5276L37.9412 53.6225H34.059L30.3228 42.5276H33.8815L36.0418 51.0943L38.2959 42.5276H41.6355Z" fill="black"/>
            <path d="M53.0286 50.4259C53.0286 50.8437 53.0843 51.1467 53.1956 51.3348C53.3139 51.5228 53.5017 51.6657 53.7591 51.7631L53.0808 53.9362C52.4267 53.8735 51.8737 53.7307 51.4215 53.5078C50.9762 53.278 50.6249 52.9332 50.3674 52.4736C49.9431 52.982 49.4003 53.3615 48.7394 53.6123C48.0784 53.856 47.4036 53.978 46.7148 53.978C45.5738 53.978 44.6623 53.6541 43.9805 53.0063C43.3057 52.3517 42.9683 51.5124 42.9683 50.4886C42.9683 49.2837 43.4379 48.3538 44.3771 47.6991C45.3233 47.0445 46.6522 46.7172 48.3637 46.7172H49.856V46.2992C49.856 45.164 49.1255 44.5964 47.6645 44.5964C47.3097 44.5964 46.8539 44.6486 46.2973 44.7531C45.7407 44.8505 45.1842 44.9932 44.6276 45.1813L43.8658 42.9875C44.5824 42.7159 45.3268 42.5103 46.099 42.3711C46.8783 42.2318 47.574 42.1621 48.1862 42.1621C49.8351 42.1621 51.0527 42.4999 51.8388 43.1754C52.632 43.8441 53.0286 44.8122 53.0286 46.0798V50.4259ZM47.8523 51.6169C48.2071 51.6169 48.5794 51.5124 48.969 51.3034C49.3586 51.0876 49.6543 50.7846 49.856 50.3946V48.5977H49.0421C48.1236 48.5977 47.4488 48.7404 47.0175 49.0259C46.5861 49.3045 46.3704 49.7155 46.3704 50.2588C46.3704 50.6836 46.4992 51.0179 46.7565 51.2616C47.0209 51.4985 47.3862 51.6169 47.8523 51.6169Z" fill="black"/>
            <path d="M56.2188 53.6227V42.5278H59.0992L59.3288 43.8128C59.8227 43.2556 60.3444 42.8412 60.8942 42.5696C61.4437 42.2979 62.0699 42.1621 62.7726 42.1621C63.7188 42.1621 64.4633 42.4511 65.006 43.0293C65.5486 43.6074 65.8199 44.4222 65.8199 45.4739V53.6227H62.5222V46.4246C62.5222 45.7421 62.4457 45.2685 62.2925 45.0037C62.1464 44.7322 61.8682 44.5964 61.4576 44.5964C61.1098 44.5964 60.7759 44.7077 60.4558 44.9307C60.1427 45.1535 59.8296 45.4634 59.5166 45.8604V53.6227H56.2188Z" fill="black"/>
            <path d="M76.9314 42.1621C77.7174 42.1621 78.2985 42.4199 78.6742 42.9353C79.0568 43.4436 79.2481 44.269 79.2481 45.4112V53.6227H76.42V45.7873C76.42 45.3973 76.3817 45.1222 76.3052 44.962C76.2356 44.8017 76.0894 44.7217 75.8668 44.7217C75.693 44.7217 75.512 44.774 75.3241 44.8784C75.1433 44.9759 74.9415 45.164 74.7189 45.4425V53.6227H72.4021V45.7873C72.4021 45.3973 72.3638 45.1222 72.2873 44.962C72.2177 44.8017 72.0716 44.7217 71.8489 44.7217C71.6751 44.7217 71.4941 44.774 71.3062 44.8784C71.1254 44.9759 70.9236 45.164 70.701 45.4425V53.6227H67.8311V42.5278H70.2522L70.4714 43.6038C70.8193 43.1302 71.1707 42.7715 71.5254 42.5278C71.8803 42.284 72.3012 42.1621 72.7882 42.1621C73.2056 42.1621 73.5604 42.27 73.8527 42.486C74.1519 42.695 74.3641 43.0257 74.4893 43.4784C74.8233 43.0884 75.192 42.7715 75.5955 42.5278C75.9991 42.284 76.4443 42.1621 76.9314 42.1621Z" fill="black"/>
            <path d="M91.1004 40.7517L91.8728 43.1754C91.4832 43.3287 91.0274 43.4401 90.5057 43.5097C89.9838 43.5794 89.3751 43.6142 88.6794 43.6142C89.3751 43.9137 89.9038 44.2863 90.2656 44.7321C90.6344 45.1708 90.8187 45.7489 90.8187 46.4664C90.8187 47.1837 90.6274 47.8245 90.2448 48.3886C89.862 48.9458 89.3195 49.3846 88.6168 49.705C87.9141 50.0254 87.0826 50.1856 86.1225 50.1856C85.6633 50.1856 85.2354 50.1438 84.8389 50.0602C84.7205 50.1229 84.6302 50.2133 84.5676 50.3318C84.5049 50.4502 84.4736 50.5721 84.4736 50.6975C84.4736 50.8716 84.5431 51.0283 84.6824 51.1675C84.8285 51.3069 85.1659 51.3765 85.6946 51.3765H87.5105C88.3732 51.3765 89.1176 51.5158 89.7438 51.7944C90.3769 52.0729 90.8674 52.4526 91.2153 52.9331C91.5631 53.4137 91.7371 53.964 91.7371 54.5839C91.7371 55.7191 91.2397 56.6141 90.2448 57.2688C89.2498 57.9234 87.7714 58.2509 85.8094 58.2509C84.3901 58.2509 83.2908 58.1046 82.5117 57.812C81.7393 57.5265 81.2002 57.1156 80.8941 56.5792C80.5949 56.0499 80.4453 55.4196 80.4453 54.6882H83.3673C83.3673 55.0087 83.43 55.2699 83.5552 55.4718C83.6874 55.6808 83.9344 55.8341 84.2962 55.9315C84.6649 56.029 85.1972 56.0778 85.8929 56.0778C86.5956 56.0778 87.1313 56.022 87.5 55.9107C87.8688 55.7992 88.1192 55.646 88.2515 55.4509C88.3906 55.2629 88.4602 55.0505 88.4602 54.8136C88.4602 54.4863 88.3314 54.2217 88.0741 54.0197C87.8166 53.8177 87.4097 53.7167 86.853 53.7167H85.0893C83.8926 53.7167 83.0229 53.4973 82.4803 53.0585C81.9376 52.6128 81.6663 52.0938 81.6663 51.5019C81.6663 51.091 81.7741 50.701 81.9898 50.3318C82.2124 49.9627 82.5221 49.6527 82.9187 49.402C82.209 49.0258 81.701 48.5836 81.3949 48.0752C81.0888 47.5598 80.9358 46.9434 80.9358 46.226C80.9358 45.3902 81.148 44.6729 81.5724 44.0739C81.9968 43.4679 82.5811 43.0013 83.3256 42.674C84.077 42.3467 84.9329 42.1829 85.8929 42.1829C86.7208 42.1968 87.441 42.1412 88.0532 42.0158C88.6654 41.8834 89.2151 41.7059 89.7021 41.4829C90.189 41.2531 90.6552 41.0093 91.1004 40.7517ZM85.9764 44.3246C85.4546 44.3246 85.0406 44.4918 84.7345 44.8262C84.4283 45.1535 84.2753 45.6062 84.2753 46.1843C84.2753 46.7971 84.4319 47.2673 84.745 47.5946C85.058 47.9219 85.4686 48.0857 85.9764 48.0857C87.1034 48.0857 87.667 47.4379 87.667 46.1425C87.667 44.9306 87.1034 44.3246 85.9764 44.3246Z" fill="black"/>
        </g>
        <defs>
            <linearGradient id="paint0_linear_2_5657" x1="-2.05005" y1="36.7549" x2="99.9719" y2="0.679714" gradientUnits="userSpaceOnUse">
                <stop stop-color="#00C0FD"/>
                <stop offset="1" stop-color="#E70FAA"/>
            </linearGradient>
            <linearGradient id="paint1_linear_2_5657" x1="-2.05004" y1="36.755" x2="99.972" y2="0.679755" gradientUnits="userSpaceOnUse">
                <stop stop-color="#00C0FD"/>
                <stop offset="1" stop-color="#E70FAA"/>
            </linearGradient>
            <linearGradient id="paint2_linear_2_5657" x1="-2.04988" y1="36.755" x2="99.9721" y2="0.679757" gradientUnits="userSpaceOnUse">
                <stop stop-color="#00C0FD"/>
                <stop offset="1" stop-color="#E70FAA"/>
            </linearGradient>
            <linearGradient id="paint3_linear_2_5657" x1="-2.05005" y1="36.7549" x2="99.9719" y2="0.679708" gradientUnits="userSpaceOnUse">
                <stop stop-color="#00C0FD"/>
                <stop offset="1" stop-color="#E70FAA"/>
            </linearGradient>
            <linearGradient id="paint4_linear_2_5657" x1="-2.05008" y1="36.7549" x2="99.9719" y2="0.679722" gradientUnits="userSpaceOnUse">
                <stop stop-color="#00C0FD"/>
                <stop offset="1" stop-color="#E70FAA"/>
            </linearGradient>
            <linearGradient id="paint5_linear_2_5657" x1="-0.244359" y1="59.3455" x2="93.6381" y2="39.507" gradientUnits="userSpaceOnUse">
                <stop stop-color="#13B0F5"/>
                <stop offset="1" stop-color="#CA24B4"/>
            </linearGradient>
            <linearGradient id="paint6_linear_2_5657" x1="-0.24451" y1="59.3455" x2="93.638" y2="39.507" gradientUnits="userSpaceOnUse">
                <stop stop-color="#13B0F5"/>
                <stop offset="1" stop-color="#CA24B4"/>
            </linearGradient>
            <linearGradient id="paint7_linear_2_5657" x1="-0.24437" y1="59.3453" x2="93.6381" y2="39.5068" gradientUnits="userSpaceOnUse">
                <stop stop-color="#13B0F5"/>
                <stop offset="1" stop-color="#CA24B4"/>
            </linearGradient>
            <linearGradient id="paint8_linear_2_5657" x1="-0.244339" y1="59.3455" x2="93.6381" y2="39.507" gradientUnits="userSpaceOnUse">
                <stop stop-color="#13B0F5"/>
                <stop offset="1" stop-color="#CA24B4"/>
            </linearGradient>
            <linearGradient id="paint9_linear_2_5657" x1="-0.244556" y1="59.3455" x2="93.6379" y2="39.507" gradientUnits="userSpaceOnUse">
                <stop stop-color="#13B0F5"/>
                <stop offset="1" stop-color="#CA24B4"/>
            </linearGradient>
            <linearGradient id="paint10_linear_2_5657" x1="-0.244473" y1="59.3455" x2="93.638" y2="39.507" gradientUnits="userSpaceOnUse">
                <stop stop-color="#13B0F5"/>
                <stop offset="1" stop-color="#CA24B4"/>
            </linearGradient>
            <linearGradient id="paint11_linear_2_5657" x1="-0.244413" y1="59.3454" x2="93.6381" y2="39.5069" gradientUnits="userSpaceOnUse">
                <stop stop-color="#13B0F5"/>
                <stop offset="1" stop-color="#CA24B4"/>
            </linearGradient>
            <clipPath id="clip0_2_5657">
                <rect width="97" height="59" fill="white"/>
            </clipPath>
        </defs>
    </g>

    <g id="arrowGoTop">
        <path d="M6.80722 4.2806V15H9.19278V4.2806L14.3134 9.08118L16 7.5L8 0L0 7.5L1.6866 9.08118L6.80722 4.2806Z" fill="white"/>
    </g>
</svg>